<?xml version="1.0" encoding="UTF-8"?>
<svg id="Camada_1" xmlns="http://www.w3.org/2000/svg" version="1.1" viewBox="0 0 529.11 132.73">
  <!-- Generator: Adobe Illustrator 29.4.0, SVG Export Plug-In . SVG Version: 2.1.0 Build 152)  -->
  <defs>
    <style>
      .st0, .st1 {
        fill: #fff;
      }

      .st1 {
        font-family: CaviarDreams-Bold, 'Caviar Dreams';
        font-size: 89.03px;
        font-weight: 700;
      }
    </style>
  </defs>
  <text class="st1" transform="translate(0 86.5)"><tspan x="0" y="0">Cantina </tspan></text>
  <g>
    <path class="st0" d="M441.03,72.26c-4-4-10.52-4-14.51,0l-.12.12c-4,3.99-4,10.52,0,14.51l42.84,42.84c3.99,4,10.51,4,14.51,0l.12-.12c3.99-3.99,3.99-10.52,0-14.51l-42.84-42.84Z"/>
    <path class="st0" d="M440.59,116.75c-1.94-4.59-6.75-7.09-11.62-6.04-3.11.67-6.33,1.02-9.64,1.02-25.14,0-45.52-20.38-45.52-45.52s20.38-45.52,45.52-45.52,45.52,20.38,45.52,45.52c0,3.21-.33,6.35-.96,9.38-1.02,4.88,1.52,9.68,6.12,11.58l.16.07c2.92,1.21,5.92,1.07,8.72-.41,2.79-1.48,4.6-3.88,5.25-6.97.92-4.4,1.4-8.96,1.4-13.64,0-36.56-29.64-66.21-66.21-66.21s-66.21,29.65-66.21,66.21,29.64,66.22,66.21,66.22c4.81,0,9.51-.51,14.04-1.49,3.09-.67,5.48-2.49,6.94-5.29,1.46-2.81,1.58-5.81.35-8.72l-.07-.16Z"/>
    <path class="st0" d="M513.51,50.85h-.16c-5.65,0-10.27,4.65-10.27,10.35v61.11c0,5.7,4.61,10.35,10.27,10.35h.16c5.65,0,10.26-4.65,10.26-10.35v-61.11c0-5.7-4.61-10.35-10.26-10.35Z"/>
    <path class="st0" d="M513.42,12.2c-8.64,0-15.69,7.05-15.69,15.69s7.05,15.69,15.69,15.69,15.69-7.04,15.69-15.69-7.05-15.69-15.69-15.69Z"/>
  </g>
</svg>